<svg width="18" height="18" viewBox="0 0 18 18" fill="none" xmlns="http://www.w3.org/2000/svg">
<path d="M18 3.19321C18 3.67417 17.6101 4.06408 17.129 4.06408C16.648 4.06408 16.2581 3.67417 16.2581 3.19321H18ZM15.8516 1.90317L16.1831 1.09786C16.1938 1.10225 16.2044 1.10685 16.2149 1.11166L15.8516 1.90317ZM12.4455 1.0474L12.357 1.91375C12.3508 1.91312 12.3447 1.91242 12.3385 1.91167L12.4455 1.0474ZM9.54232 0.870902L9.54383 1.74177H9.54232V0.870902ZM8.45884 0.870902V1.74177H8.45733L8.45884 0.870902ZM5.55561 1.0474L5.66257 1.91167C5.65641 1.91243 5.65026 1.91313 5.6441 1.91376L5.55561 1.0474ZM2.14839 1.90317L1.78514 1.11166C1.79559 1.10684 1.80627 1.10224 1.81684 1.09785L2.14839 1.90317ZM1.74194 3.19321C1.74194 3.67417 1.35197 4.06408 0.870968 4.06408C0.389961 4.06408 0 3.67417 0 3.19321H1.74194ZM16.2581 3.19321C16.2581 2.71225 16.648 2.32235 17.129 2.32235C17.6101 2.32235 18 2.71225 18 3.19321H16.2581ZM14.9063 4.83508L15.1611 5.66786C15.1528 5.67038 15.1445 5.67279 15.1362 5.67506L14.9063 4.83508ZM9.54232 5.51552V4.64456L9.55521 4.64475L9.54232 5.51552ZM8.45884 5.51552L8.44595 4.64465H8.45884V5.51552ZM3.09368 4.83508L2.86374 5.67506C2.8555 5.67279 2.84713 5.67038 2.83889 5.66786L3.09368 4.83508ZM0 3.19321C0 2.71225 0.389961 2.32235 0.870968 2.32235C1.35197 2.32235 1.74194 2.71225 1.74194 3.19321H0ZM16.2581 3.19321C16.2581 2.71225 16.648 2.32235 17.129 2.32235C17.6101 2.32235 18 2.71225 18 3.19321H16.2581ZM18 8.99895C18 9.4799 17.6101 9.86982 17.129 9.86982C16.648 9.86982 16.2581 9.4799 16.2581 8.99895H18ZM0 3.19321C0 2.71225 0.389961 2.32235 0.870968 2.32235C1.35197 2.32235 1.74194 2.71225 1.74194 3.19321H0ZM1.74194 8.99895C1.74194 9.4799 1.35197 9.86982 0.870968 9.86982C0.389961 9.86982 0 9.4799 0 8.99895H1.74194ZM16.2581 8.99895C16.2581 8.518 16.648 8.12808 17.129 8.12808C17.6101 8.12808 18 8.518 18 8.99895H16.2581ZM14.9063 10.6408L15.1611 11.4736C15.1528 11.4762 15.1445 11.4786 15.1362 11.4808L14.9063 10.6408ZM9.54232 11.3213V10.4503L9.55521 10.4505L9.54232 11.3213ZM8.45884 11.3213L8.44595 10.4504H8.45884V11.3213ZM3.09368 10.6408L2.86374 11.4808C2.8555 11.4786 2.84713 11.4762 2.83889 11.4736L3.09368 10.6408ZM0 8.99895C0 8.518 0.389961 8.12808 0.870968 8.12808C1.35197 8.12808 1.74194 8.518 1.74194 8.99895H0ZM16.2581 8.99895C16.2581 8.518 16.648 8.12808 17.129 8.12808C17.6101 8.12808 18 8.518 18 8.99895H16.2581ZM14.9063 16.4466L15.1611 17.2794C15.1528 17.2819 15.1445 17.2844 15.1362 17.2866L14.9063 16.4466ZM9.54232 17.127V16.2561L9.55521 16.2563L9.54232 17.127ZM8.45884 17.127L8.44595 16.2562H8.45884V17.127ZM3.09368 16.4466L2.86374 17.2866C2.8555 17.2844 2.84713 17.2819 2.83889 17.2794L3.09368 16.4466ZM0 8.99895C0 8.518 0.389961 8.12808 0.870968 8.12808C1.35197 8.12808 1.74194 8.518 1.74194 8.99895H0ZM16.2581 3.19321C16.2581 3.26106 16.2951 3.24215 16.1846 3.131C16.0698 3.01544 15.8522 2.8616 15.4884 2.69468L16.2149 1.11166C16.6837 1.32676 17.1047 1.58571 17.4205 1.90355C17.7406 2.2258 18 2.6609 18 3.19321H16.2581ZM15.5201 2.70848C14.5095 2.29254 13.4441 2.02487 12.357 1.91375L12.5341 0.181048C13.7883 0.309228 15.0173 0.618025 16.1831 1.09786L15.5201 2.70848ZM12.3385 1.91167C11.4114 1.7969 10.478 1.74015 9.54383 1.74177L9.54081 3.57056e-05C10.5475 -0.00169441 11.5534 0.059452 12.5526 0.183127L12.3385 1.91167ZM9.54232 1.74177H8.45884V3.57056e-05H9.54232V1.74177ZM8.45733 1.74177C7.52319 1.74015 6.58974 1.7969 5.66257 1.91167L5.44866 0.183127C6.44772 0.059452 7.45363 -0.00169441 8.46035 3.57056e-05L8.45733 1.74177ZM5.6441 1.91376C4.55655 2.02478 3.49084 2.29245 2.47994 2.70849L1.81684 1.09785C2.98312 0.617898 4.21258 0.3091 5.46712 0.181036L5.6441 1.91376ZM2.51164 2.69468C2.14781 2.8616 1.93018 3.01544 1.81533 3.131C1.70489 3.24215 1.74194 3.26106 1.74194 3.19321H0C0 2.6609 0.259434 2.2258 0.579485 1.90355C0.895241 1.58571 1.31632 1.32676 1.78514 1.11166L2.51164 2.69468ZM18 3.19321C18 3.9057 17.5401 4.43403 17.0692 4.782C16.5813 5.14259 15.9222 5.43509 15.1611 5.66786L14.6516 4.0023C15.3142 3.79964 15.7665 3.57891 16.0339 3.38128C16.3185 3.17102 16.2581 3.09614 16.2581 3.19321H18ZM15.1362 5.67506C13.3101 6.17474 11.4226 6.41419 9.52943 6.38629L9.55521 4.64475C11.2843 4.67022 13.0084 4.45152 14.6764 3.9951L15.1362 5.67506ZM9.54232 6.38639H8.45884V4.64465L9.54232 4.64456V6.38639ZM8.47173 6.38629C6.57825 6.4143 4.69034 6.17486 2.86374 5.67506L3.32361 3.9951C4.99192 4.45162 6.71644 4.67023 8.44595 4.64465L8.47173 6.38629ZM2.83889 5.66786C2.07813 5.43518 1.41898 5.14302 0.930891 4.78257C0.459639 4.43445 0 3.90608 0 3.19321H1.74194C1.74194 3.09692 1.68178 3.17176 1.96595 3.38159C2.23328 3.57906 2.68548 3.79955 3.34846 4.0023L2.83889 5.66786ZM18 3.19321V8.99895H16.2581V3.19321H18ZM1.74194 3.19321V8.99895H0V3.19321H1.74194ZM18 8.99895C18 9.71143 17.5401 10.2398 17.0692 10.5878C16.5813 10.9484 15.9222 11.2409 15.1611 11.4736L14.6516 9.80804C15.3142 9.60542 15.7665 9.38469 16.0339 9.18706C16.3185 8.97677 16.2581 8.90188 16.2581 8.99895H18ZM15.1362 11.4808C13.3101 11.9806 11.4226 12.22 9.52943 12.192L9.55521 10.4505C11.2843 10.4761 13.0084 10.2573 14.6764 9.80084L15.1362 11.4808ZM9.54232 12.1921H8.45884V10.4504L9.54232 10.4503V12.1921ZM8.47173 12.192C6.57825 12.2201 4.69034 11.9807 2.86374 11.4808L3.32361 9.80084C4.99192 10.2574 6.71644 10.4759 8.44595 10.4504L8.47173 12.192ZM2.83889 11.4736C2.07813 11.2409 1.41898 10.9488 0.930891 10.5883C0.459639 10.2402 0 9.7119 0 8.99895H1.74194C1.74194 8.90269 1.68178 8.97758 1.96595 9.18741C2.23328 9.3848 2.68548 9.60531 3.34846 9.80804L2.83889 11.4736ZM18 8.99895V14.8047H16.2581V8.99895H18ZM18 14.8047C18 15.5172 17.5401 16.0455 17.0692 16.3935C16.5813 16.7542 15.9222 17.0467 15.1611 17.2794L14.6516 15.6138C15.3142 15.4112 15.7665 15.1905 16.0339 14.9928C16.3185 14.7825 16.2581 14.7077 16.2581 14.8047H18ZM15.1362 17.2866C13.3101 17.7863 11.4226 18.0258 9.52943 17.9978L9.55521 16.2563C11.2843 16.2818 13.0084 16.0631 14.6764 15.6066L15.1362 17.2866ZM9.54232 17.9979H8.45884V16.2562L9.54232 16.2561V17.9979ZM8.47173 17.9978C6.57825 18.0259 4.69034 17.7865 2.86374 17.2866L3.32361 15.6066C4.99192 16.0632 6.71644 16.2817 8.44595 16.2562L8.47173 17.9978ZM2.83889 17.2794C2.07778 17.0467 1.41875 16.7542 0.930775 16.3935C0.459871 16.0455 0 15.5172 0 14.8047H1.74194C1.74194 14.7077 1.68155 14.7825 1.96607 14.9928C2.23351 15.1905 2.68583 15.4112 3.34846 15.6138L2.83889 17.2794ZM0 14.8047V8.99895H1.74194V14.8047H0Z" fill="#FFFCF4"/>
</svg>
